<svg width="23" height="23" viewBox="0 0 23 23" fill="none" xmlns="http://www.w3.org/2000/svg">
<path d="M11.5 0C5.15464 0 0 5.15465 0 11.5C0 17.8454 5.15464 23 11.5 23C17.8454 23 23 17.8454 23 11.5C23 5.15465 17.8454 0 11.5 0ZM11.5 1C17.3049 1 22 5.69509 22 11.5C22 17.3049 17.3049 22 11.5 22C5.69508 22 1 17.3049 1 11.5C1 5.69509 5.69508 1 11.5 1ZM16.0439 6.01758C15.7019 6.01758 15.3177 6.09679 14.8682 6.25879C14.1702 6.51029 5.96037 9.99608 5.02637 10.3926C4.49237 10.6196 3.49805 11.0418 3.49805 12.0488C3.49805 12.7163 3.88918 13.1937 4.65918 13.4688C5.07318 13.6162 6.05645 13.9143 6.62695 14.0713C6.86895 14.1378 7.12613 14.1719 7.39062 14.1719C7.90812 14.1719 8.42891 14.0429 8.83691 13.8154C8.83341 13.8994 8.8357 13.9843 8.8457 14.0693C8.9072 14.5943 9.23094 15.0881 9.71094 15.3906C10.0249 15.5886 12.5897 17.3071 12.9727 17.5801C13.5107 17.9646 14.1054 18.168 14.6914 18.168C15.8114 18.168 16.1872 17.0116 16.3682 16.4561C16.6307 15.6496 17.6136 9.09107 17.7246 7.93457C17.8001 7.14207 17.4698 6.48948 16.8408 6.18848C16.6053 6.07498 16.3364 6.01758 16.0439 6.01758ZM16.0439 7.01758C16.1814 7.01758 16.3042 7.04032 16.4082 7.09082C16.6447 7.20432 16.765 7.45734 16.7285 7.83984C16.6075 9.10134 15.627 15.5045 15.418 16.1465C15.239 16.6955 15.0504 17.168 14.6914 17.168C14.3324 17.168 13.9402 17.0421 13.5537 16.7656C13.1672 16.4896 10.6006 14.7684 10.2441 14.5439C9.93164 14.3469 9.60091 13.8559 10.0664 13.3809C10.4499 12.9899 13.3589 10.1665 13.6074 9.91797C13.7924 9.73247 13.7059 9.50879 13.5244 9.50879C13.4619 9.50879 13.3871 9.53513 13.3096 9.59863C13.0056 9.84713 8.76739 12.6831 8.40039 12.9111C8.15739 13.0621 7.78113 13.1709 7.39062 13.1709C7.22412 13.1709 7.05555 13.1509 6.89355 13.1064C6.32955 12.9509 5.37509 12.6614 4.99609 12.5264C4.63159 12.3964 4.49902 12.2718 4.49902 12.0488C4.49902 11.7318 4.94647 11.513 5.41797 11.3125C5.91597 11.101 14.533 7.44172 15.207 7.19922C15.519 7.08622 15.8044 7.01758 16.0439 7.01758Z" fill="#58666E"/>
</svg>
