<svg width="50" height="50" viewBox="0 0 50 50" fill="none" xmlns="http://www.w3.org/2000/svg">
<rect width="50" height="50" fill="#07CB79"/>
<path d="M25 5C13.9646 5 5 13.9646 5 25C5 36.0354 13.9646 45 25 45C36.0354 45 45 36.0354 45 25C45 13.9646 36.0354 5 25 5ZM25 6.73913C35.0955 6.73913 43.2609 14.9045 43.2609 25C43.2609 35.0955 35.0955 43.2609 25 43.2609C14.9045 43.2609 6.73913 35.0955 6.73913 25C6.73913 14.9045 14.9045 6.73913 25 6.73913ZM32.9025 15.4654C32.3077 15.4654 31.6394 15.6031 30.8577 15.8849C29.6438 16.3222 15.3659 22.3845 13.7415 23.074C12.8128 23.4688 11.0836 24.2032 11.0836 25.9545C11.0836 27.1154 11.7638 27.9457 13.1029 28.4239C13.8229 28.6804 15.533 29.1988 16.5251 29.4718C16.946 29.5875 17.3933 29.6467 17.8533 29.6467C18.7533 29.6467 19.659 29.4225 20.3685 29.0268C20.3625 29.1729 20.3664 29.3206 20.3838 29.4684C20.4908 30.3815 21.0538 31.2402 21.8886 31.7663C22.4347 32.1107 26.8951 35.0993 27.5611 35.574C28.4968 36.2427 29.5311 36.5965 30.5503 36.5965C32.4981 36.5965 33.1516 34.5853 33.4664 33.6192C33.9229 32.2166 35.6324 20.8106 35.8254 18.7993C35.9567 17.421 35.3823 16.286 34.2884 15.7626C33.8788 15.5652 33.4112 15.4654 32.9025 15.4654ZM32.9025 17.2045C33.1416 17.2045 33.3551 17.244 33.536 17.3319C33.9473 17.5293 34.1565 17.9693 34.0931 18.6345C33.8826 20.8284 32.1773 31.9643 31.8139 33.0808C31.5026 34.0356 31.1746 34.8573 30.5503 34.8573C29.9259 34.8573 29.2438 34.6385 28.5717 34.1576C27.8995 33.6776 23.4359 30.6843 22.8159 30.2938C22.2724 29.9512 21.6972 29.0971 22.5068 28.2711C23.1737 27.5911 28.2329 22.6808 28.6651 22.2486C28.9868 21.926 28.8364 21.537 28.5207 21.537C28.412 21.537 28.2819 21.5828 28.1471 21.6933C27.6184 22.1254 20.2476 27.0576 19.6094 27.4541C19.1868 27.7168 18.5324 27.9059 17.8533 27.9059C17.5637 27.9059 17.2705 27.8712 16.9888 27.7938C16.0079 27.5234 14.348 27.0198 13.6889 26.785C13.0549 26.5589 12.8244 26.3423 12.8244 25.9545C12.8244 25.4032 13.6026 25.0226 14.4226 24.6739C15.2886 24.3061 30.2748 17.9421 31.447 17.5204C31.9896 17.3239 32.486 17.2045 32.9025 17.2045Z" fill="white"/>
</svg>
