<svg width="50" height="50" viewBox="0 0 50 50" fill="none" xmlns="http://www.w3.org/2000/svg">
<rect width="50" height="50" fill="#07CB79"/>
<path d="M25 10C16.7236 10 10 16.7236 10 25C10 27.6603 10.7296 30.143 11.9463 32.3102L10.0242 39.172C9.99349 39.2819 9.99211 39.3978 10.0202 39.5083C10.0482 39.6188 10.1048 39.72 10.1842 39.8019C10.2636 39.8837 10.363 39.9433 10.4726 39.9747C10.5822 40.0061 10.6982 40.0083 10.8088 39.9809L17.9637 38.2078C20.0661 39.3302 22.4517 40 25 40C33.2764 40 40 33.2764 40 25C40 16.7236 33.2764 10 25 10ZM25 11.3043C32.5714 11.3043 38.6957 17.4286 38.6957 25C38.6957 32.5714 32.5714 38.6957 25 38.6957C22.5726 38.6957 20.2992 38.0628 18.3229 36.9569C18.1783 36.8762 18.0085 36.8534 17.8477 36.8933L11.582 38.446L13.2621 32.4516C13.2862 32.3669 13.2928 32.2782 13.2817 32.1908C13.2705 32.1035 13.2418 32.0193 13.1972 31.9434C11.9961 29.9067 11.3043 27.537 11.3043 25C11.3043 17.4286 17.4286 11.3043 25 11.3043ZM19.5495 17.1739C19.1314 17.1739 18.5344 17.3295 18.0439 17.8579C17.7493 18.1754 16.5217 19.3714 16.5217 21.4742C16.5217 23.6665 18.0422 25.5582 18.2261 25.8012H18.2273V25.8025C18.2099 25.7796 18.4607 26.1427 18.7954 26.5782C19.1302 27.0137 19.5983 27.5856 20.1864 28.2048C21.3626 29.4432 23.0163 30.8744 25.0688 31.7497C26.014 32.1522 26.7597 32.3953 27.3246 32.5726C28.3716 32.9014 29.3253 32.8514 30.0416 32.7458C30.5778 32.6669 31.1675 32.4094 31.751 32.0402C32.3345 31.6709 32.9064 31.2118 33.1585 30.5142C33.3392 30.0141 33.431 29.5519 33.4643 29.1716C33.4809 28.9815 33.483 28.8137 33.4706 28.6583C33.4582 28.5029 33.4715 28.3839 33.3267 28.1462C33.0231 27.6477 32.6792 27.6347 32.3204 27.4571C32.121 27.3585 31.5535 27.0813 30.9842 26.81C30.4156 26.5391 29.9232 26.2991 29.62 26.191C29.4284 26.1221 29.1945 26.0228 28.857 26.0611C28.5195 26.0993 28.1862 26.3428 27.9921 26.6304C27.8082 26.9031 27.0676 27.7772 26.8419 28.0341C26.8389 28.0323 26.8585 28.0413 26.7693 27.9972C26.4901 27.859 26.1486 27.7415 25.6433 27.4749C25.1379 27.2084 24.5058 26.8148 23.8141 26.205V26.2037C22.7846 25.2974 22.0634 24.1594 21.8359 23.7772C21.8513 23.7589 21.8341 23.781 21.8665 23.7492L21.8678 23.7479C22.1003 23.5189 22.3064 23.2453 22.4805 23.0448C22.7273 22.7603 22.8363 22.5096 22.9543 22.2754C23.1895 21.8085 23.0586 21.2948 22.9225 21.0245V21.0233C22.9319 21.042 22.8489 20.8588 22.7594 20.6475C22.6697 20.4356 22.5554 20.1609 22.4333 19.868C22.1892 19.2821 21.9165 18.6249 21.7544 18.2401V18.2388C21.5634 17.7854 21.305 17.4589 20.9672 17.3013C20.6294 17.1437 20.3309 17.1885 20.3189 17.1879H20.3176C20.0765 17.1768 19.812 17.1739 19.5495 17.1739ZM19.5495 18.4783C19.8009 18.4783 20.0488 18.4813 20.2565 18.491C20.47 18.5016 20.4568 18.5025 20.4157 18.4834C20.3739 18.4639 20.4306 18.4576 20.552 18.7458C20.7107 19.1226 20.9847 19.7821 21.2296 20.3698C21.3521 20.6637 21.4667 20.9394 21.5583 21.1557C21.6498 21.372 21.6994 21.4928 21.757 21.6079V21.6092L21.7582 21.6105C21.8147 21.7218 21.8097 21.6505 21.7901 21.6895C21.6525 21.9626 21.6338 22.0297 21.4946 22.19C21.2826 22.4342 21.0664 22.7066 20.9519 22.8193C20.8518 22.9177 20.6711 23.0709 20.5583 23.3708C20.4454 23.6712 20.4981 24.0834 20.6793 24.3911C20.9207 24.8008 21.7159 26.0952 22.9518 27.1833C23.7301 27.8694 24.4552 28.3234 25.0344 28.629C25.6136 28.9345 26.0854 29.113 26.191 29.1653C26.4417 29.2893 26.7156 29.3857 27.0342 29.3474C27.3528 29.3092 27.6275 29.1159 27.8023 28.9181L27.8036 28.9169C28.0363 28.6531 28.7277 27.8635 29.0595 27.3769C29.0736 27.3818 29.069 27.378 29.1793 27.4176V27.4189H29.1805C29.2309 27.4368 29.8615 27.7191 30.4237 27.987C30.986 28.2549 31.5567 28.5334 31.7421 28.6252C32.0097 28.7576 32.1362 28.8438 32.1688 28.8443C32.171 28.9016 32.1733 28.9638 32.165 29.0583C32.1421 29.3202 32.0721 29.6828 31.9319 30.0709C31.8632 30.2609 31.5054 30.6528 31.0543 30.9383C30.6031 31.2239 30.0539 31.4256 29.8505 31.4555C29.2391 31.5456 28.513 31.5785 27.7157 31.3281C27.1628 31.1546 26.4735 30.93 25.5808 30.5498C23.7705 29.7778 22.2319 28.464 21.1328 27.3068C20.5833 26.7282 20.143 26.1896 19.8297 25.7821C19.5171 25.3754 19.3806 25.1637 19.2667 25.014L19.2655 25.0127C19.0634 24.7455 17.8261 23.0245 17.8261 21.4742C17.8261 19.8335 18.5882 19.1901 19.0005 18.7458C19.217 18.5125 19.4537 18.4783 19.5495 18.4783Z" fill="white"/>
</svg>
