<svg width="50" height="50" viewBox="0 0 50 50" fill="none" xmlns="http://www.w3.org/2000/svg">
<rect width="50" height="50" fill="#07CB79"/>
<path d="M15.5428 10.0344C15.0079 10.2173 14.8337 10.7845 15.1771 11.2205C15.2442 11.3049 15.3811 11.394 15.5329 11.4502L15.6548 11.4948L15.4483 11.4971C15.2517 11.4971 15.2368 11.5018 15.1646 11.5674C15.1024 11.6284 15.0925 11.6518 15.1049 11.7151C15.1273 11.8229 15.197 11.8745 15.3288 11.8885L15.4433 11.9026V25.9501V40H15.7792H16.1151V31.1374C16.1151 22.7061 16.1176 22.2748 16.1599 22.2865C16.1823 22.2935 16.3465 22.3591 16.5231 22.4318C18.2872 23.1584 20.2777 23.2874 22.8455 22.8397C23.5596 22.7154 24.1269 22.5935 25.9556 22.174C27.2171 21.8833 28.2721 21.677 28.9912 21.5786C29.8396 21.4637 30.0511 21.4497 30.9817 21.4497C31.7754 21.4473 31.9247 21.4544 32.2879 21.5012C33.2409 21.6231 33.95 21.8224 34.9701 22.249C34.9925 22.2583 35 21.2153 35 17.0711V11.8815L34.8681 11.8276C33.4623 11.2416 32.2854 11.0236 30.7329 11.0588C29.2997 11.0916 28.185 11.2768 25.152 11.98C23.7561 12.3034 22.6041 12.5261 21.9373 12.5988C21.2182 12.6808 21.0067 12.6949 20.3449 12.7066C19.2352 12.7277 18.536 12.655 17.6279 12.4206C17.0855 12.2823 16.0579 11.8979 16.2221 11.8956C16.4535 11.8932 16.5654 11.6706 16.3962 11.544C16.344 11.5065 16.2942 11.4971 16.13 11.4971H15.9285L16.0753 11.4385C16.2868 11.3565 16.4062 11.251 16.5082 11.0517C16.6426 10.7845 16.5779 10.4353 16.3539 10.2243C16.1474 10.0298 15.7966 9.94772 15.5428 10.0344Z" fill="white"/>
</svg>
