<svg width="50" height="50" viewBox="0 0 50 50" fill="none" xmlns="http://www.w3.org/2000/svg">
<rect width="50" height="50" fill="#07CB79"/>
<path d="M24.0852 6.02304C22.4007 6.18728 20.8141 6.76043 19.4332 7.70564C18.8619 8.09445 18.5159 8.376 18.0654 8.82179C17.4353 9.44188 16.9228 10.0787 16.5049 10.7625C14.9576 13.2897 14.5789 16.3868 15.4831 19.1956C15.568 19.4638 16.2699 21.4614 17.0436 23.6368C23.2201 41.0192 24.9894 45.9933 24.996 46C25.0025 46.0067 25.6619 44.1665 26.4617 41.9141C27.2615 39.6584 29.3672 33.7357 31.1398 28.7483C32.9092 23.7608 34.4174 19.5073 34.4892 19.2962C35.5599 16.0684 34.9234 12.4719 32.8047 9.77706C32.4782 9.35808 31.7829 8.65085 31.3487 8.29221C29.9091 7.10232 28.2931 6.37498 26.4356 6.08672C25.9231 6.00963 24.6075 5.97276 24.0852 6.02304ZM25.7109 10.7658C26.9547 10.9904 28.0646 11.8183 28.6522 12.9579C29.168 13.9668 29.2725 15.1902 28.9297 16.2628C28.4302 17.8214 27.0885 18.9576 25.4987 19.1621C24.5357 19.2861 23.5171 19.0347 22.6879 18.4683C22.3778 18.2571 21.8751 17.7543 21.6433 17.4292C20.8663 16.3198 20.6607 14.9053 21.0818 13.6082C21.294 12.9546 21.6009 12.4451 22.0775 11.9557C22.6781 11.3356 23.442 10.9234 24.2745 10.7658C24.6075 10.7055 25.3616 10.7055 25.7109 10.7658Z" fill="white"/>
</svg>
