<svg width="50" height="50" viewBox="0 0 50 50" fill="none" xmlns="http://www.w3.org/2000/svg">
<path d="M0 0H50V50H0V0Z" fill="#07CB79"/>
<path d="M10.4096 5.04463C10.0315 5.1516 9.72837 5.40644 9.56899 5.74622L9.48462 5.92554V9.43345V12.9414L9.58462 13.149C9.71274 13.407 9.93149 13.6209 10.2127 13.7531C10.4096 13.8474 10.444 13.8537 10.8627 13.8632C11.3252 13.8758 11.5252 13.8443 11.7815 13.7122C11.9877 13.6052 12.2127 13.3724 12.319 13.1522L12.4221 12.9414L12.4315 9.51211C12.4377 6.14892 12.4377 6.0797 12.3752 5.87835C12.2658 5.51655 11.9971 5.23655 11.6252 5.08553C11.3971 4.99744 10.6721 4.97227 10.4096 5.04463Z" fill="white"/>
<path d="M19.7532 5.04771C19.3657 5.15153 19.0094 5.45985 18.8688 5.80592L18.7969 5.9884L18.7875 9.32012C18.7813 11.5255 18.7907 12.7085 18.8125 12.828C18.8969 13.2937 19.2094 13.6429 19.6844 13.8065C19.9563 13.8977 20.6063 13.8977 20.8813 13.8033C21.3563 13.6429 21.6625 13.3062 21.7469 12.8469C21.7938 12.6015 21.7938 6.27469 21.75 6.03244C21.6563 5.53536 21.2656 5.14209 20.7563 5.03198C20.5282 4.98479 19.9563 4.99108 19.7532 5.04771Z" fill="white"/>
<path d="M29.0688 5.04756C28.6313 5.16397 28.2938 5.49117 28.1751 5.91274C28.1282 6.07005 28.1251 6.44758 28.1313 9.51503L28.1407 12.9411L28.2251 13.1142C28.3969 13.4697 28.6657 13.6962 29.0407 13.8126C29.2219 13.8661 29.3157 13.8755 29.6969 13.863C30.1188 13.8535 30.15 13.8472 30.35 13.7528C30.6157 13.627 30.8375 13.4194 30.9719 13.1677L31.0782 12.9726V9.44897V5.92533L30.9938 5.746C30.8313 5.39678 30.525 5.14824 30.1407 5.04442C29.9063 4.98464 29.2969 4.98464 29.0688 5.04756Z" fill="white"/>
<path d="M38.4091 5.04442C38.031 5.15139 37.7279 5.40622 37.5685 5.746L37.4841 5.92533V9.44897V12.9726L37.581 13.1614C37.7091 13.4036 37.9435 13.627 38.2122 13.7528C38.4216 13.8535 38.4216 13.8535 38.9372 13.8535C39.4029 13.8535 39.4685 13.8472 39.6341 13.7812C39.9935 13.6333 40.2685 13.3407 40.381 12.982C40.4341 12.8027 40.4372 12.6139 40.4372 9.43324C40.4372 6.25252 40.4341 6.06376 40.381 5.88443C40.2685 5.52892 39.9841 5.23004 39.6185 5.08532C39.3966 4.99723 38.6685 4.97206 38.4091 5.04442Z" fill="white"/>
<path d="M5.99704 10.4526C5.54704 10.5753 5.18142 10.978 5.04705 11.5003C5.00642 11.6576 5.00017 13.5987 5.00017 27.5863C5.00017 44.9497 4.98767 43.6755 5.17517 44.0467C5.33142 44.355 5.52517 44.5218 6.02516 44.7735L6.47829 45H25.2312H43.9842L44.1967 44.8962C44.5717 44.7106 44.8405 44.3645 44.953 43.924C44.9936 43.7667 44.9998 41.8256 44.9998 27.838C44.9998 10.4746 45.0123 11.7488 44.8248 11.3776C44.6686 11.0692 44.4748 10.9025 43.9748 10.6508L43.5217 10.4243L42.2124 10.4149L40.9061 10.4054V11.7866C40.9061 13.303 40.8999 13.3596 40.7124 13.6553C40.4936 14.0046 40.0217 14.316 39.5468 14.4198C39.2249 14.4922 38.0655 14.4733 37.8186 14.3915C37.5905 14.316 37.3155 14.0423 37.178 13.7529L37.078 13.5389L37.0624 12.0917L37.0468 10.6445L36.8218 10.6351L36.5937 10.6256V10.5187V10.4086H34.0937H31.5937V11.7677C31.5937 13.2149 31.5874 13.2935 31.4374 13.5861C31.3218 13.8189 31.0093 14.0989 30.7125 14.2437C30.2875 14.4482 30.1156 14.4733 29.3406 14.4607C28.5031 14.4419 28.4156 14.4198 28.1406 14.143C27.9156 13.9133 27.7875 13.6711 27.75 13.3942C27.7312 13.2841 27.7187 12.6203 27.7219 11.9187V10.6445L27.5 10.6351L27.2812 10.6256V10.5187V10.4086L24.7813 10.4149L22.2781 10.4243L22.2813 11.6701C22.2813 12.3623 22.2688 13.0167 22.25 13.1425C22.1719 13.7025 21.7563 14.1461 21.1032 14.3601C20.8313 14.4513 20.8188 14.4513 20.1094 14.4513C19.2188 14.4513 19.1157 14.4261 18.8376 14.1587C18.7126 14.0392 18.6188 13.9102 18.5376 13.7466L18.4219 13.5106L18.4126 12.0697L18.4032 10.6288H18.1719H17.9376V10.5187V10.4086H15.4376H12.9407L12.9314 11.8652L12.922 13.3187L12.8189 13.5295C12.6189 13.9385 12.1157 14.3003 11.5782 14.4198C11.2595 14.4922 10.097 14.4733 9.85326 14.3947C9.63451 14.3192 9.35639 14.0455 9.21576 13.756L9.10951 13.5389L9.09389 12.0917L9.07826 10.6445L8.85326 10.6351L8.62514 10.6256V10.5187V10.4086L7.38453 10.4117C6.50329 10.4117 6.10016 10.4243 5.99704 10.4526ZM41.7624 17.5785C41.9249 17.6006 41.9624 17.6163 42.053 17.7233C42.1092 17.7893 42.1874 17.9089 42.2249 17.9875L42.2967 18.1323V30.1032V42.0741L42.2061 42.2409C42.0874 42.4517 41.8874 42.6373 41.6624 42.7442L41.4842 42.8292H24.7688H8.0564L7.95015 42.7065C7.8939 42.6404 7.81265 42.5177 7.77515 42.4391L7.70327 42.2943V30.3234V18.3525L7.78765 18.1952C7.89077 17.997 8.14077 17.7579 8.33452 17.6729C8.41889 17.6383 8.56889 17.5974 8.67202 17.5817C8.90951 17.5502 41.5124 17.5471 41.7624 17.5785Z" fill="white"/>
<path d="M39.2185 18.8841C39.2185 18.8936 39.2153 19.1956 39.2153 19.5542V20.2086H39.2872C39.3372 20.2086 39.3591 20.1898 39.356 20.152C39.3528 20.1237 39.3622 20.0985 39.3778 20.0985C39.3935 20.0985 39.406 20.1111 39.406 20.1237C39.406 20.1709 39.5591 20.2244 39.6903 20.2244C40.0684 20.2244 40.1966 19.5165 39.856 19.2931C39.756 19.227 39.556 19.227 39.456 19.2931L39.3778 19.3435L39.3685 19.1138C39.3591 18.9061 39.3528 18.8873 39.2903 18.8778C39.2497 18.8715 39.2185 18.8747 39.2185 18.8841ZM39.8091 19.4567C39.8591 19.5228 39.8747 19.5857 39.8747 19.743C39.8747 19.916 39.8622 19.9538 39.7966 20.0199C39.7497 20.0702 39.6841 20.0985 39.6247 20.0985C39.5653 20.0985 39.4997 20.0702 39.4528 20.0199C39.3872 19.9538 39.3747 19.916 39.3747 19.743C39.3747 19.4819 39.4466 19.3749 39.6247 19.3749C39.7185 19.3749 39.7591 19.3938 39.8091 19.4567Z" fill="white"/>
<path d="M33.0687 19.5701L33.0781 20.2087H33.1562H33.2344V19.6959C33.2344 19.4159 33.2406 19.1862 33.25 19.1862C33.2594 19.1862 33.3656 19.3813 33.4844 19.6141C33.8062 20.2433 33.7969 20.2307 33.9156 20.2182L34.0156 20.2087L34.025 19.5701L34.0312 18.9345H33.9531H33.875V19.4599C33.875 19.7683 33.8625 19.9728 33.8469 19.9539C33.8312 19.9382 33.7031 19.7022 33.5594 19.4285L33.2969 18.9345H33.1781H33.0625L33.0687 19.5701Z" fill="white"/>
<path d="M34.6282 19.2396C34.4157 19.2805 34.3032 19.4536 34.3 19.7367C34.3 20.0608 34.45 20.2244 34.7438 20.2244C35.0094 20.2244 35.1563 20.045 35.1563 19.7147C35.1563 19.3906 34.9219 19.183 34.6282 19.2396ZM34.9094 19.4567C34.9719 19.5259 34.9844 19.5668 34.9844 19.743C34.9844 19.9286 34.975 19.9538 34.8969 20.023C34.7563 20.1426 34.5907 20.1205 34.5157 19.9695C34.425 19.7996 34.4813 19.4441 34.6 19.3969C34.7063 19.3529 34.8344 19.3781 34.9094 19.4567Z" fill="white"/>
<path d="M36.725 19.2491C36.325 19.3403 36.2563 19.9853 36.625 20.1772C36.7282 20.2307 37.0188 20.2401 37.1375 20.1929C37.2469 20.152 37.2563 20.0167 37.15 20.0513C37.1094 20.0639 37.0063 20.0797 36.9157 20.0891C36.7657 20.1048 36.7469 20.0985 36.6563 20.0104C36.6063 19.957 36.5625 19.8846 36.5625 19.85C36.5625 19.7871 36.5782 19.7839 36.9063 19.7839H37.25V19.6486C37.25 19.5071 37.1657 19.334 37.0719 19.2868C36.9813 19.2396 36.8375 19.2239 36.725 19.2491ZM37.0219 19.4441C37.0625 19.4819 37.0938 19.5448 37.0938 19.5857C37.0938 19.6549 37.0844 19.6581 36.8282 19.6581C36.5813 19.6581 36.5625 19.6549 36.5625 19.5952C36.5625 19.4064 36.8719 19.3026 37.0219 19.4441Z" fill="white"/>
<path d="M37.8622 19.2522C37.8153 19.2648 37.7466 19.3026 37.7153 19.3309C37.6591 19.3812 37.656 19.3812 37.656 19.3183C37.656 19.2648 37.6372 19.2491 37.5778 19.2491H37.4966L37.506 19.7273C37.5153 20.1929 37.5185 20.2086 37.581 20.2181C37.6466 20.2275 37.6497 20.2149 37.6622 19.8814C37.6716 19.57 37.681 19.5291 37.7466 19.4567C37.8466 19.3497 38.006 19.3466 38.0747 19.4441C38.1122 19.4976 38.1247 19.5983 38.1247 19.8689V20.2244H38.2028H38.281V19.9098C38.281 19.5542 38.3247 19.419 38.4528 19.3875C38.6841 19.3309 38.7497 19.4504 38.7497 19.916C38.7497 20.2212 38.7497 20.2275 38.8216 20.2181C38.8872 20.2086 38.8903 20.1929 38.8997 19.8909C38.9091 19.4882 38.8684 19.3466 38.7184 19.2742C38.5872 19.2082 38.4216 19.2396 38.3278 19.3435C38.2716 19.4064 38.2716 19.4064 38.1903 19.3309C38.0935 19.2428 37.9841 19.2145 37.8622 19.2522Z" fill="white"/>
<path d="M40.553 19.2617C40.403 19.3183 40.3592 19.3529 40.2998 19.4819C40.1967 19.7053 40.2561 20.0168 40.428 20.1457C40.603 20.2716 41.0936 20.2338 41.0936 20.0923C41.0936 20.0419 41.0811 20.0325 41.0248 20.0482C40.8655 20.0986 40.6842 20.1048 40.5936 20.0671C40.5061 20.0293 40.4061 19.8972 40.4061 19.8186C40.4061 19.7997 40.5467 19.7839 40.7592 19.7777L41.1092 19.7682L41.1061 19.6361C41.0998 19.3435 40.8311 19.161 40.553 19.2617ZM40.8905 19.4536C40.9342 19.4945 40.9686 19.5574 40.9686 19.5952C40.9686 19.6581 40.953 19.6612 40.6967 19.6518C40.4405 19.6424 40.4217 19.6392 40.4311 19.5794C40.4592 19.3907 40.7498 19.3089 40.8905 19.4536Z" fill="white"/>
<path d="M41.7373 19.2491C41.6904 19.2648 41.6216 19.3026 41.5904 19.3309C41.5341 19.3812 41.531 19.3812 41.531 19.3183C41.531 19.2648 41.5123 19.2491 41.4529 19.2491H41.3748V19.7399V20.2275L41.4466 20.2181C41.5123 20.2087 41.5154 20.1898 41.531 19.8783C41.5404 19.6958 41.5623 19.5228 41.5748 19.4914C41.6123 19.4127 41.6935 19.3749 41.8248 19.3749C41.9154 19.3749 41.9373 19.3624 41.9373 19.3152C41.9373 19.268 41.8654 19.2051 41.8341 19.2208C41.831 19.2208 41.7873 19.2365 41.7373 19.2491Z" fill="white"/>
<path d="M35.3281 19.3026C35.3375 19.334 35.4125 19.5259 35.4875 19.7336C35.6687 20.2181 35.6719 20.2244 35.7781 20.2244C35.8625 20.2244 35.875 20.2055 35.9562 19.9947C36.0031 19.872 36.0812 19.6612 36.1312 19.5322C36.1781 19.4032 36.2187 19.2868 36.2187 19.2742C36.2187 19.2585 36.1844 19.2491 36.1437 19.2491C36.0781 19.2491 36.0562 19.2868 35.9406 19.6014C35.8687 19.7965 35.8 19.9727 35.7875 19.9947C35.7719 20.0167 35.7062 19.8751 35.6219 19.6486C35.4906 19.2931 35.4719 19.2648 35.3906 19.2554C35.3187 19.2459 35.3062 19.2522 35.3281 19.3026Z" fill="white"/>
<path d="M8.12524 23.3548V25.1953H10.3127H12.5002V23.3548V21.5144H10.3127H8.12524V23.3548Z" fill="white"/>
<path d="M12.969 23.3548V25.1953H15.1565H17.344V23.3548V21.5144H15.1565H12.969V23.3548Z" fill="white"/>
<path d="M17.8125 23.3548V25.1953H20H22.1875V23.3548V21.5144H20H17.8125V23.3548Z" fill="white"/>
<path d="M22.6562 23.3548V25.1953H24.8437H27.0312V23.3548V21.5144H24.8437H22.6562V23.3548Z" fill="white"/>
<path d="M27.5 23.3548V25.1953H29.6875H31.875V23.3548V21.5144H29.6875H27.5V23.3548Z" fill="white"/>
<path d="M32.3438 23.3548V25.1953H34.5312H36.7187V23.3548V21.5144H34.5312H32.3438V23.3548Z" fill="white"/>
<path d="M37.1873 23.3548V25.1953H39.3747H41.5622V23.3548V21.5144H39.3747H37.1873V23.3548Z" fill="white"/>
<path d="M8.12524 27.5389V29.3794H10.3127H12.5002V27.5389V25.6985H10.3127H8.12524V27.5389Z" fill="white"/>
<path d="M12.969 27.5389V29.3794H15.1565H17.344V27.5389V25.6985H15.1565H12.969V27.5389Z" fill="white"/>
<path d="M17.8125 27.5389V29.3794H20H22.1875V27.5389V25.6985H20H17.8125V27.5389Z" fill="white"/>
<path d="M22.6562 27.5389V29.3794H24.8437H27.0312V27.5389V25.6985H24.8437H22.6562V27.5389Z" fill="white"/>
<path d="M27.5 27.5389V29.3794H29.6875H31.875V27.5389V25.6985H29.6875H27.5V27.5389Z" fill="white"/>
<path d="M32.3438 27.5389V29.3794H34.5312H36.7187V27.5389V25.6985H34.5312H32.3438V27.5389Z" fill="white"/>
<path d="M37.1873 27.5389V29.3794H39.3747H41.5622V27.5389V25.6985H39.3747H37.1873V27.5389Z" fill="white"/>
<path d="M8.12524 31.6605V33.501H10.3127H12.5002V31.6605V29.82H10.3127H8.12524V31.6605Z" fill="white"/>
<path d="M12.969 31.6605V33.501H15.1565H17.344V31.6605V29.82H15.1565H12.969V31.6605Z" fill="white"/>
<path d="M17.8125 31.6605V33.501H20H22.1875V31.6605V29.82H20H17.8125V31.6605Z" fill="white"/>
<path d="M22.6562 31.6605V33.501H24.8437H27.0312V31.6605V29.82H24.8437H22.6562V31.6605Z" fill="white"/>
<path d="M27.5 31.6605V33.501H29.6875H31.875V31.6605V29.82H29.6875H27.5V31.6605Z" fill="white"/>
<path d="M32.3438 31.6605V33.501H34.5312H36.7187V31.6605V29.82H34.5312H32.3438V31.6605Z" fill="white"/>
<path d="M37.1873 31.6605V33.501H39.3747H41.5622V31.6605V29.82H39.3747H37.1873V31.6605Z" fill="white"/>
<path d="M8.12524 35.7976V37.6538H10.3127H12.5002V35.7976V33.9414H10.3127H8.12524V35.7976Z" fill="white"/>
<path d="M12.969 35.7976V37.6538H15.1565H17.344V35.7976V33.9414H15.1565H12.969V35.7976Z" fill="white"/>
<path d="M17.8125 35.7976V37.6538H20H22.1875V35.7976V33.9414H20H17.8125V35.7976Z" fill="white"/>
<path d="M22.6562 35.7976V37.6538H24.8437H27.0312V35.7976V33.9414H24.8437H22.6562V35.7976Z" fill="white"/>
<path d="M27.5 35.7976V37.6538H29.6875H31.875V35.7976V33.9414H29.6875H27.5V35.7976Z" fill="white"/>
<path d="M32.3438 35.7976V37.6538H34.5312H36.7187V35.7976V33.9414H34.5312H32.3438V35.7976Z" fill="white"/>
<path d="M37.1873 35.7976V37.6538H39.3747H41.5622V35.7976V33.9414H39.3747H37.1873V35.7976Z" fill="white"/>
<path d="M8.12524 39.9662V41.8066H10.3127H12.5002V39.9662V38.1257H10.3127H8.12524V39.9662Z" fill="white"/>
<path d="M12.969 39.9662V41.8066H15.1565H17.344V39.9662V38.1257H15.1565H12.969V39.9662Z" fill="white"/>
<path d="M17.8125 39.9662V41.8066H20H22.1875V39.9662V38.1257H20H17.8125V39.9662Z" fill="white"/>
<path d="M22.6562 39.9662V41.8066H24.8437H27.0312V39.9662V38.1257H24.8437H22.6562V39.9662Z" fill="white"/>
<path d="M27.5 39.9662V41.8066H29.6875H31.875V39.9662V38.1257H29.6875H27.5V39.9662Z" fill="white"/>
<path d="M32.3438 39.9662V41.8066H34.5312H36.7187V39.9662V38.1257H34.5312H32.3438V39.9662Z" fill="white"/>
<path d="M37.1873 39.9662V41.8066H39.3747H41.5622V39.9662V38.1257H39.3747H37.1873V39.9662Z" fill="white"/>
</svg>
