<svg width="50" height="50" viewBox="0 0 50 50" fill="none" xmlns="http://www.w3.org/2000/svg">
<rect width="50" height="50" fill="#07CB79"/>
<path d="M11.4384 15.0058C11.136 15.0717 10.9508 15.1692 10.7727 15.3546C10.7 15.4302 10.6039 15.557 10.5617 15.6326C10.5218 15.7057 10.4234 15.835 10.346 15.9203C10.1772 16.0983 10.06 16.3349 10.0225 16.5714C10.0038 16.6885 9.99672 19.132 10.0014 25.3797C10.0084 33.8514 10.0084 34.027 10.053 34.1465C10.2007 34.5415 10.4726 34.8195 10.8407 34.9537C10.9672 35 11.272 35 24.7773 35C36.5853 35 38.6014 34.9951 38.7022 34.9659C39.0046 34.8756 39.2836 34.6513 39.4383 34.3708C39.4782 34.2977 39.5766 34.1684 39.654 34.0831C39.8228 33.9051 39.94 33.6685 39.9775 33.432C39.9962 33.3149 40.0033 30.8714 39.9986 24.6237C39.9916 16.1569 39.9916 15.9764 39.947 15.8569C39.8017 15.4692 39.5438 15.2009 39.1711 15.0497C39.0562 15.0034 38.8241 15.0034 25.2696 15.001C17.6882 14.9985 11.4642 15.001 11.4384 15.0058ZM36.2759 16.7226C36.2736 16.7421 25.2274 23.7044 25.2016 23.7044C25.1782 23.7019 14.1765 16.7641 14.1414 16.7275C14.132 16.7177 19.1089 16.7104 25.2016 16.7104C31.292 16.7104 36.2759 16.7153 36.2759 16.7226ZM38.4514 28.6377L38.4443 32.4321L36.4517 30.5617C35.357 29.5326 33.1838 27.494 31.6272 26.0308C29.2267 23.7751 28.8024 23.3678 28.8376 23.3459C29.0368 23.2313 38.3834 17.3201 38.4092 17.2933C38.4397 17.2615 38.4443 17.6786 38.4514 21.0511C38.4537 23.1362 38.4537 26.5502 38.4514 28.6377ZM16.4786 20.6488C19.1604 22.3412 21.357 23.7287 21.3617 23.7336C21.364 23.7361 21.1648 23.9311 20.9163 24.1653C19.9903 25.0358 11.6236 32.8979 11.5861 32.9345C11.5463 32.9686 11.5439 32.6004 11.5439 25.2456C11.5439 19.0686 11.551 17.5274 11.5744 17.5469C11.5885 17.5591 13.7968 18.9564 16.4786 20.6488ZM29.0345 24.2994C29.4025 24.6457 30.8888 26.043 32.3375 27.4037C33.7863 28.7645 35.7531 30.6129 36.7096 31.5079C38.2873 32.9906 38.4443 33.1467 38.4514 33.2198C38.4584 33.2954 38.4537 33.3003 38.4021 33.2857C38.3693 33.2759 37.3801 32.3639 36.2032 31.2567C32.4102 27.6939 28.9595 24.453 28.582 24.1019C28.221 23.7629 28.2163 23.758 28.2632 23.7141C28.289 23.6922 28.3218 23.6727 28.3382 23.6727C28.3523 23.6727 28.6664 23.9555 29.0345 24.2994ZM29.6956 25.8503C30.7552 26.8453 32.9353 28.8937 34.5411 30.4008C36.147 31.9078 37.4949 33.1735 37.5348 33.2174L37.6121 33.293H24.8828C17.8805 33.293 12.1558 33.2857 12.1605 33.2759C12.1652 33.2613 14.268 31.2811 19.3386 26.5161C20.6795 25.2578 21.8095 24.1945 21.8493 24.1555L21.922 24.0848L23.1152 24.8383C23.7716 25.2529 24.346 25.6114 24.3905 25.6357C24.5194 25.7065 24.9742 25.7162 25.143 25.6528C25.2133 25.626 25.8228 25.2529 26.5003 24.8237C27.1778 24.3945 27.7381 24.0409 27.7498 24.0409C27.7592 24.0384 28.6336 24.8529 29.6956 25.8503Z" fill="white"/>
</svg>
