<svg width="50" height="50" viewBox="0 0 50 50" fill="none" xmlns="http://www.w3.org/2000/svg">
<rect width="50" height="50" fill="#07CB79"/>
<path d="M19.809 6.01834L19.7361 6.03201L19.7519 6.44492C19.7614 6.67462 19.7773 7.39652 19.7868 8.05006C19.8406 11.7471 19.9547 15.0449 20.0561 15.6793C20.0783 15.8215 20.1004 15.8707 20.1701 15.9227C20.2525 15.9801 20.2778 15.9855 20.5123 15.9746C20.658 15.9664 20.8576 15.9336 20.9749 15.898C21.2632 15.8133 21.7764 15.5863 22.0045 15.4469C22.2168 15.3183 22.5653 15.0121 22.8694 14.6867L23.0722 14.4734L23.069 13.7433C23.0659 13.3413 23.0595 12.7479 23.05 12.4252C23.0405 12.1026 23.0184 10.8584 22.9993 9.66341L22.9677 7.4895L22.8726 7.32269C22.8093 7.20511 22.7079 7.09573 22.5368 6.95354C21.7923 6.34101 20.5123 5.90349 19.809 6.01834Z" fill="white"/>
<path d="M18.2344 6.05664C17.3124 6.13047 16.1592 6.34103 15.3386 6.58713C12.614 7.40748 10.8714 8.92238 10.2505 11.017C10.035 11.7444 9.99701 12.0479 10.0002 13.1226C10.0065 14.8043 10.1586 16.784 10.4247 18.6325C11.0362 22.8409 12.2623 26.4668 13.8812 28.8459C14.141 29.2287 14.9964 30.3471 15.703 31.2249C19.3116 35.7203 22.6604 38.5943 25.9553 40.019C28.0146 40.9131 30.1849 41.2139 31.8894 40.8475C33.0584 40.5959 34.4303 40.1994 35.5487 39.792C36.3946 39.483 38.1181 38.6982 38.1149 38.6271C38.1117 38.6162 36.9427 37.815 35.5106 36.8442C34.0786 35.8735 31.9908 34.457 30.8724 33.6968L28.8352 32.3159L28.5247 32.4472C27.5362 32.8683 26.4781 32.9613 25.6733 32.7015C25.252 32.5648 24.8338 32.305 24.5169 31.985C23.8199 31.285 22.0932 28.6435 19.4636 24.2656C17.9904 21.8128 17.1793 20.4072 17.097 20.1502C16.7136 18.9744 16.872 17.938 17.5532 17.1587C17.8637 16.8059 18.2312 16.5434 18.7698 16.2891L19.0549 16.1578L19.0454 15.857C19.0423 15.6902 18.9694 13.4835 18.8838 10.9486C18.7951 8.41377 18.7254 6.26993 18.7254 6.18243V6.02656L18.6241 6.0293C18.567 6.03203 18.3928 6.04297 18.2344 6.05664Z" fill="white"/>
<path d="M30.9008 30.9705C30.2006 31.2905 29.6272 31.5612 29.624 31.5694C29.624 31.5913 39.097 38.0857 39.1445 38.0966C39.1762 38.1048 39.4518 37.3993 39.8479 36.2973C39.9777 35.9309 39.9999 35.8407 39.9999 35.6383C39.9999 35.4168 39.9936 35.3922 39.8637 35.168C39.7813 35.023 39.6578 34.8644 39.55 34.7633C39.2491 34.4844 34.7787 31.4737 33.8061 30.8967C33.315 30.6069 32.8081 30.4318 32.3709 30.4018L32.1744 30.3908L30.9008 30.9705Z" fill="white"/>
</svg>
