<svg width="50" height="50" viewBox="0 0 50 50" fill="none" xmlns="http://www.w3.org/2000/svg">
<rect width="50" height="50" fill="#07CB79"/>
<path d="M24.1563 5.00679C24.0969 5.01329 23.8938 5.03605 23.7031 5.05555C21.5156 5.27333 19.2344 6.20295 17.4531 7.60063C16.725 8.16946 15.7844 9.11208 15.2438 9.81417C13.0281 12.6875 12.0688 16.2955 12.5656 19.8905C12.9906 22.9654 14.4531 25.7965 16.6563 27.815C17.0969 28.2181 17.7188 28.7089 18.15 29.0014L18.4406 29.1964L18.275 29.2354C17.8313 29.3427 16.8 29.6418 16.3125 29.8075C11.1031 31.5562 7.2625 34.7839 5.73438 38.6909C5.26563 39.8903 5 41.2523 5 42.4647C5 42.806 5.10313 44.5384 5.14375 44.8602L5.15938 45H25H44.8406L44.8563 44.8602C44.8969 44.5417 45 42.8092 45 42.4809C45 41.4538 44.8125 40.3096 44.4781 39.2955C43.1156 35.148 39.2719 31.735 33.8594 29.8693C33.2594 29.6613 32.1063 29.3167 31.7813 29.2517C31.7219 29.2387 31.6531 29.2192 31.6313 29.2062C31.6094 29.1932 31.7594 29.0664 32.0375 28.8682C33.2125 28.0425 34.1969 27.0674 35.0375 25.9038C35.3406 25.4845 35.6156 25.0522 35.7906 24.7304C35.8656 24.5906 35.9969 24.3501 36.0781 24.1973C36.2906 23.8137 36.5844 23.1312 36.7938 22.5493C37.55 20.4203 37.7531 18.0832 37.375 15.7949C37.1438 14.394 36.6188 12.8696 35.9344 11.6052C35.6719 11.1241 35.1563 10.3342 34.7938 9.86293C34.3625 9.3006 33.4156 8.31572 32.875 7.86717C32.4375 7.50312 31.6688 6.9603 31.2344 6.70351C30.0563 6.01117 28.7688 5.50736 27.4531 5.23107C26.6719 5.0653 26.1719 5.01655 25.1875 5.00354C24.6813 4.99704 24.2156 5.00029 24.1563 5.00679Z" fill="white"/>
</svg>
